<svg xmlns="http://www.w3.org/2000/svg" width="62" height="47.801" viewBox="0 0 62 47.801">
  <g id="Group_559" data-name="Group 559" transform="translate(-213 -1368.199)">
    <g id="Group_558" data-name="Group 558">
      <path id="Path_167" data-name="Path 167" d="M645.119,262.432h6.573l-7.342-7.966-6.425,7.967h6.244c-.422.724-.78,1.352-1.151,1.972-.668,1.118-1.351,2.228-2.008,3.353a.513.513,0,0,1-.506.3c-2.733-.005-5.467.031-8.2-.023a2.607,2.607,0,0,1-2.023-1.435,3.354,3.354,0,0,1,.373-4.245q5.951-6.674,11.9-13.354c.024-.027.048-.053.073-.078,1.248-1.293,2.017-1.259,3.26.041,2.491,2.6,5.01,5.182,7.52,7.769q2.685,2.767,5.376,5.529a3.454,3.454,0,0,1-2.518,5.793c-2.358,0-4.716-.007-7.074.007a.725.725,0,0,1-.7-.364c-1.051-1.594-2.123-3.174-3.179-4.765A.714.714,0,0,1,645.119,262.432Z" transform="translate(-401.733 1120.228)" fill="#0b2a7f"/>
      <path id="Path_168" data-name="Path 168" d="M620.788,435.132a5.423,5.423,0,0,1,1.6,1.058c.627.472,1.238.966,1.842,1.468a.918.918,0,0,0,.634.212q12.509-.006,25.017,0a.954.954,0,0,0,.7-.3c.854-.783,1.725-1.548,2.59-2.319l-.1-.129c-.249.488-.494.98-.75,1.465-.623,1.184-1.259,2.36-1.87,3.55a.516.516,0,0,1-.541.314q-12.857-.01-25.714-.005c-.2,0-.372.016-.5-.208C622.734,438.532,621.759,436.834,620.788,435.132Z" transform="translate(-394.026 953.14)" fill="#0b2a7f"/>
      <path id="Path_169" data-name="Path 169" d="M753.817,343.049a1.9,1.9,0,0,1-1.905,1.9,1.922,1.922,0,0,1-1.844-1.915,1.875,1.875,0,1,1,3.749.015Z" transform="translate(-509.446 1037.037)" fill="#e4071d"/>
      <path id="Path_170" data-name="Path 170" d="M737.944,504.539a1,1,0,0,1,.573,1.229c-.15.511-.5.721-1.221.734-.6.01-1.208,0-1.838,0v-3.625c.728,0,1.451-.029,2.171.012a.767.767,0,0,1,.715.626A.925.925,0,0,1,737.944,504.539ZM736.2,505.85a4.688,4.688,0,0,0,1.139.028.418.418,0,0,0,.453-.421.446.446,0,0,0-.422-.514,3.115,3.115,0,0,0-1.169.009Zm.029-1.567c.361,0,.714.02,1.064-.007a.39.39,0,0,0,.364-.448.364.364,0,0,0-.379-.372,3.107,3.107,0,0,0-1.068.029A1.627,1.627,0,0,0,736.228,504.283Z" transform="translate(-496.402 892.656)" fill="#070808"/>
      <path id="Path_171" data-name="Path 171" d="M783.4,504.465c.325.614.677.808,1.181.656a.512.512,0,0,0,.418-.435c.028-.267-.159-.372-.38-.437-.308-.091-.62-.17-.923-.277a1.029,1.029,0,0,1-.82-1.1c.06-.47.415-.773,1.015-.865.98-.151,1.6.186,1.735.949,0,.013-.018.03-.044.071-.31.068-.621.174-.831-.254-.1-.207-.36-.216-.578-.2-.252.017-.549.054-.585.353-.03.249.237.328.439.394.338.111.688.19,1.022.312a1.047,1.047,0,0,1,.506,1.619,1.593,1.593,0,0,1-1.749.481,1.214,1.214,0,0,1-1.046-1.065c-.005-.031.018-.066.031-.112A1.442,1.442,0,0,1,783.4,504.465Z" transform="translate(-538.635 893.462)" fill="#070808"/>
      <path id="Path_172" data-name="Path 172" d="M771.326,506.183h-.689V502.59a1.606,1.606,0,0,1,.689-.053Z" transform="translate(-527.81 892.963)" fill="#070808"/>
    </g>
    <path id="Path_173" data-name="Path 173" d="M581.725,557.555l-.01.041.025-.032Z" transform="translate(-359.279 844.924)" fill="#070808"/>
    <text id="_100_Hall_Marked_Jewellery" data-name="100% Hall Marked 
Jewellery" transform="translate(244 1407)" fill="#303030" font-size="6" font-family="Muli-SemiBold, Muli" font-weight="600" letter-spacing="-0.011em"><tspan x="-30.537" y="0">100% HALL MARKED </tspan><tspan x="-16.659" y="7">JEWELLERY</tspan></text>
  </g>
</svg>
