<svg xmlns="http://www.w3.org/2000/svg" width="16.281" height="17.957" viewBox="0 0 16.281 17.957">
  <g id="Icon_feather-share-2" data-name="Icon feather-share-2" transform="translate(-3.9 -2.4)">
    <path id="Path_108" data-name="Path 108" d="M27.527,5.514A2.514,2.514,0,1,1,25.014,3,2.514,2.514,0,0,1,27.527,5.514Z" transform="translate(-7.946)" fill="none" stroke="#9a0056" stroke-linecap="round" stroke-linejoin="round" stroke-width="1.2"/>
    <path id="Path_109" data-name="Path 109" d="M9.527,16.014a2.514,2.514,0,0,1-2.514,2.514c-.01,0-.019,0-.341-.023A2.438,2.438,0,0,1,4.5,16.014a2.514,2.514,0,0,1,5.027,0Z" transform="translate(0 -4.635)" fill="none" stroke="#9a0056" stroke-linecap="round" stroke-linejoin="round" stroke-width="1.2"/>
    <path id="Path_110" data-name="Path 110" d="M27.527,26.514A2.514,2.514,0,1,1,25.014,24,2.514,2.514,0,0,1,27.527,26.514Z" transform="translate(-7.946 -9.27)" fill="none" stroke="#9a0056" stroke-linecap="round" stroke-linejoin="round" stroke-width="1.2"/>
    <path id="Path_111" data-name="Path 111" d="M12.885,20.265,18.607,23.6" transform="translate(-3.701 -7.621)" fill="none" stroke="#9a0056" stroke-linecap="round" stroke-linejoin="round" stroke-width="1.2"/>
    <path id="Path_112" data-name="Path 112" d="M18.6,9.765,12.885,13.1" transform="translate(-3.701 -2.986)" fill="none" stroke="#9a0056" stroke-linecap="round" stroke-linejoin="round" stroke-width="1.2"/>
  </g>
</svg>
