<svg xmlns="http://www.w3.org/2000/svg" width="42" height="48" viewBox="0 0 42 48">
  <g id="Group_560" data-name="Group 560" transform="translate(-335 -1368)">
    <g id="Group_557" data-name="Group 557" transform="translate(-160.75 484.772)">
      <path id="Path_174" data-name="Path 174" d="M498.75,889.1c.222.007.337-.176.486-.287q3.493-2.629,6.976-5.272a1.4,1.4,0,0,1,.9-.318q9.25.016,18.5.007a1.071,1.071,0,0,1,.718.172c2.521,1.918,5.05,3.826,7.652,5.794l-17.622,16.043c-1.215-1.1-2.413-2.19-3.609-3.279q-6.774-6.166-13.55-12.329c-.13-.118-.212-.34-.455-.3Zm32.863.054c-2.108-1.6-4.15-3.151-6.18-4.711a1.3,1.3,0,0,0-.856-.278q-6.9.013-13.8.007a5.245,5.245,0,0,0-5.589,1.888c-1.2.918-2.4,1.842-3.63,2.786l15.2,13.763Z" fill="#0d0d0d"/>
      <path id="Path_175" data-name="Path 175" d="M560.885,1034q-.01-3.317-.021-6.634a.552.552,0,0,1,.172-.47c.729-.645,1.449-1.3,2.17-1.95.183.149.1.317.105.46.006,1.977-.006,3.955.013,5.932a1.038,1.038,0,0,1-.391.851A13.557,13.557,0,0,0,561,1034Z" transform="translate(-52.385 -119.519)" fill="#0d0d0d"/>
      <path id="Path_176" data-name="Path 176" d="M603.1,1026.529c0,.809,0,1.509,0,2.21a.454.454,0,0,1-.158.362c-.726.649-1.454,1.3-2.265,2.018v-2.388H598.3l2.246-2.057h-4.721l-.061-.141c.723-.664,1.444-1.331,2.173-1.988a.447.447,0,0,1,.274-.062c1.579,0,3.157,0,4.907,0l-2.308,2.05Z" transform="translate(-81.819 -119.128)" fill="#0d0d0d"/>
      <path id="Path_177" data-name="Path 177" d="M586.526,1043.2c-.816.746-1.494,1.362-2.167,1.983a.581.581,0,0,1-.419.168c-1.561,0-3.123,0-4.774,0v-1.994c0-2.884,0-2.884,2.429-4.717v4.562Z" transform="translate(-67.822 -131.064)" fill="#0d0d0d"/>
      <path id="Path_178" data-name="Path 178" d="M646.778,1024.339c0,2.351,0,4.554,0,6.757a.49.49,0,0,1-.188.4c-.717.628-1.427,1.264-2.133,1.891-.226-.12-.126-.3-.127-.431-.008-1.973,0-3.947-.013-5.92a.947.947,0,0,1,.357-.8C645.352,1025.65,646.006,1025.039,646.778,1024.339Z" transform="translate(-122.762 -119.009)" fill="#0d0d0d"/>
      <path id="Path_179" data-name="Path 179" d="M533.7,902.427c1.776-1.327,3.486-2.6,5.188-3.881a1.087,1.087,0,0,1,.7-.216q6.7.009,13.39,0a.847.847,0,0,1,.56.116c1.59,1.2,3.183,2.389,4.83,3.623l-12.579,11.363Zm23.171-.176c-1.417-1.062-2.778-2.078-4.133-3.1a.827.827,0,0,0-.556-.116q-5.929,0-11.857,0a.735.735,0,0,0-.5.089c-1.363,1.038-2.731,2.07-4.129,3.127l10.546,9.641Z" transform="translate(-29.478 -12.737)" fill="#0d0d0d"/>
      <path id="Path_180" data-name="Path 180" d="M560.922,912.486c1.211-.92,2.377-1.8,3.54-2.691a.76.76,0,0,1,.5-.117q4.288,0,8.575,0a.865.865,0,0,1,.547.163c.987.736,1.976,1.468,3.026,2.247l-8.313,7.55Zm15.09-.181c-.811-.6-1.587-1.166-2.341-1.754a1.213,1.213,0,0,0-.8-.272c-2.406.009-4.811,0-7.217.006-.174,0-.365-.046-.515.067-.912.683-1.819,1.374-2.761,2.087l6.731,6.14Z" transform="translate(-52.434 -22.305)" fill="#0d0d0d"/>
    </g>
    <text id="certificated_diamonds" data-name="certificated
diamonds" transform="translate(356 1407)" fill="#303030" font-size="6" font-family="Muli-SemiBold, Muli" font-weight="600"><tspan x="-20.841" y="0">CERTIFICATED</tspan><tspan x="-16.587" y="7">DIAMONDS</tspan></text>
  </g>
</svg>
